<svg width="36" height="34" viewBox="0 0 36 34" fill="none" xmlns="http://www.w3.org/2000/svg">
<path d="M18 8.25C18 6.39348 17.2625 4.61301 15.9497 3.30025C14.637 1.9875 12.8565 1.25 11 1.25H0.5V27.5H12.75C14.1424 27.5 15.4777 28.0531 16.4623 29.0377C17.4469 30.0223 18 31.3576 18 32.75M18 8.25V32.75M18 8.25C18 6.39348 18.7375 4.61301 20.0503 3.30025C21.363 1.9875 23.1435 1.25 25 1.25H35.5V27.5H23.25C21.8576 27.5 20.5223 28.0531 19.5377 29.0377C18.5531 30.0223 18 31.3576 18 32.75" stroke="#87C756" stroke-linecap="round" stroke-linejoin="round"/>
</svg>
